HIERARCHY
ROOT Hips
{
    OFFSET 0.000000 0.000000 0.000000
    CHANNELS 6 Xposition Yposition Zposition Zrotation Xrotation Yrotation
    JOINT Spine
    {
        OFFSET -0.000000 8.603107 0.000000
        CHANNELS 3 Zrotation Xrotation Yrotation
        JOINT Spine1
        {
            OFFSET -0.000000 23.906662 0.000000
            CHANNELS 3 Zrotation Xrotation Yrotation
            JOINT Neck
            {
                OFFSET -0.000000 23.808481 2.164407
                CHANNELS 3 Zrotation Xrotation Yrotation
                JOINT Head
                {
                    OFFSET -0.000000 14.688231 -2.098319
                    CHANNELS 3 Zrotation Xrotation Yrotation
                    End Site
                    {
                        OFFSET -0.000000 26.228985 0.000000
                    }
                }
            }
            JOINT LeftShoulder
            {
                OFFSET 4.178941 22.658146 -0.129871
                CHANNELS 3 Zrotation Xrotation Yrotation
                JOINT LeftArm
                {
                    OFFSET 9.497952 0.000000 0.000000
                    CHANNELS 3 Zrotation Xrotation Yrotation
                    JOINT LeftForeArm
                    {
                        OFFSET 38.855015 0.000000 0.000000
                        CHANNELS 3 Zrotation Xrotation Yrotation
                        JOINT LeftHand
                        {
                            OFFSET 24.940550 0.000000 0.000000
                            CHANNELS 3 Zrotation Xrotation Yrotation
                            End Site
                            {
                                OFFSET 15.737392 0.000000 0.000000
                            }
                        }
                    }
                }
            }
            JOINT RightShoulder
            {
                OFFSET -4.145384 22.658146 -0.129871
                CHANNELS 3 Zrotation Xrotation Yrotation
                JOINT RightArm
                {
                    OFFSET -9.497952 0.000000 0.000000
                    CHANNELS 3 Zrotation Xrotation Yrotation
                    JOINT RightForeArm
                    {
                        OFFSET -38.855015 0.000000 0.000000
                        CHANNELS 3 Zrotation Xrotation Yrotation
                        JOINT RightHand
                        {
                            OFFSET -24.940550 0.000000 0.000000
                            CHANNELS 3 Zrotation Xrotation Yrotation
                            End Site
                            {
                                OFFSET -15.737392 0.000000 0.000000
                            }
                        }
                    }
                }
            }
        }
    }
    JOINT LeftUpLeg
    {
        OFFSET 10.491594 0.000000 0.000000
        CHANNELS 3 Zrotation Xrotation Yrotation
        JOINT LeftLeg
        {
            OFFSET -0.000000 -46.080647 0.000000
            CHANNELS 3 Zrotation Xrotation Yrotation
            JOINT LeftFoot
            {
                OFFSET -0.000000 -50.184704 0.000000
                CHANNELS 3 Zrotation Xrotation Yrotation
                JOINT LeftToeBase
                {
                    OFFSET -0.000000 -6.819536 15.737392
                    CHANNELS 3 Zrotation Xrotation Yrotation
                    End Site
                    {
                        OFFSET -0.000000 0.000000 4.196638
                    }
                }
            }
        }
    }
    JOINT RightUpLeg
    {
        OFFSET -10.491594 0.000000 0.000000
        CHANNELS 3 Zrotation Xrotation Yrotation
        JOINT RightLeg
        {
            OFFSET -0.000000 -46.080647 0.000000
            CHANNELS 3 Zrotation Xrotation Yrotation
            JOINT RightFoot
            {
                OFFSET -0.000000 -50.184704 0.000000
                CHANNELS 3 Zrotation Xrotation Yrotation
                JOINT RightToeBase
                {
                    OFFSET -0.000000 -6.819536 15.737392
                    CHANNELS 3 Zrotation Xrotation Yrotation
                    End Site
                    {
                        OFFSET -0.000000 0.000000 4.196638
                    }
                }
            }
        }
    }
}
MOTION
Frames:    13
Frame Time:    0.008333
-132.910736    103.974274    37.816467    1.163176    -1.301859    89.800529    0.071280    -4.715751    0.042500    2.257168    -1.863495    0.078106    3.035033    15.001907    2.962616    0.766453    -0.660961    3.161040    11.679032    -2.520715    -9.445262    -15.666229    4.386796    7.603977    2.137554    -3.592176    -0.680766    -3.374579    -3.579551    0.001952    -15.853358    -0.518578    -8.167298    15.335382    -1.938924    3.492270    -0.829549    -5.966367    0.246238    -0.845993    -5.947318    -2.352738    -0.463213    1.712752    0.115932    -3.175792    9.999892    -5.109849    4.030833    -8.039047    12.716888    0.000000    0.000000    0.000000    3.120575    6.326215    -2.774807    1.655031    0.008904    0.074808    -0.740522    -1.978759    -6.785326    0.000000    0.000000    0.000000    
-132.904419    103.978455    37.825661    1.171170    -1.302205    89.847984    0.086647    -4.724546    0.044356    2.226877    -1.859669    0.078297    3.059856    15.011814    2.896438    0.713992    -0.730155    3.084822    11.685478    -2.521920    -9.487731    -15.677506    4.403179    7.577151    2.144735    -3.597016    -0.677989    -3.352537    -3.585162    0.027946    -15.810333    -0.517708    -8.189631    15.311617    -1.919999    3.480165    -0.842686    -5.974180    0.238447    -0.830110    -5.955692    -2.323742    -0.457863    1.727277    0.112833    -3.167467    9.987866    -5.135652    4.008287    -8.035925    12.705753    0.000000    0.000000    0.000000    3.119629    6.356379    -2.766806    1.672464    -0.015990    0.110531    -0.744197    -1.956000    -6.860800    0.000000    0.000000    0.000000    
-132.900192    103.976082    37.842415    1.177081    -1.298756    89.925552    0.070210    -4.721547    0.037158    2.221178    -1.874611    0.070877    3.047882    15.021364    2.803428    0.727867    -0.810746    2.990990    11.686212    -2.504185    -9.531771    -15.672166    4.392869    7.521510    2.146603    -3.591160    -0.670317    -3.363732    -3.579719    0.037615    -15.755180    -0.491699    -8.229395    15.283801    -1.882544    3.470256    -0.836091    -6.055144    0.259628    -0.968896    -6.033389    -2.362913    -0.444892    1.720935    0.126582    -3.163859    10.001262    -5.205089    4.018799    -8.047138    12.695806    0.000000    0.000000    0.000000    3.134941    6.388575    -2.784963    1.670408    -0.056678    0.070968    -0.746157    -1.950981    -6.873437    0.000000    0.000000    0.000000    
-132.894730    103.973793    37.852097    1.169035    -1.276788    89.994186    0.046101    -4.729011    0.042685    2.193586    -1.906222    0.078152    2.734966    14.970761    2.682683    1.316435    -0.799650    2.955628    11.699884    -2.491473    -9.589128    -15.680646    4.416852    7.461762    2.154452    -3.581555    -0.674414    -3.404403    -3.570293    0.047273    -15.663599    -0.469899    -8.264037    15.233995    -1.850441    3.431036    -0.889641    -6.061659    0.266711    -0.892907    -6.042190    -2.247059    -0.459800    1.712322    0.129747    -3.152897    9.997589    -5.224880    3.999022    -8.041102    12.646846    0.000000    0.000000    0.000000    3.115095    6.424776    -2.783793    1.694871    -0.127951    0.077719    -0.777031    -1.938399    -6.943046    0.000000    0.000000    0.000000    
-132.889374    103.971008    37.854073    1.164564    -1.238498    90.071152    0.008571    -4.735885    0.046747    2.172041    -1.930176    0.083709    2.797863    14.967855    2.568372    1.225791    -0.849666    2.822795    11.688684    -2.474527    -9.657469    -15.671095    4.405210    7.399944    2.184544    -3.554570    -0.675134    -3.554304    -3.543241    0.049166    -15.575233    -0.436027    -8.299833    15.174467    -1.848936    3.387157    -0.896791    -6.138838    0.278000    -0.882755    -6.119888    -2.191950    -0.492191    1.710995    0.093146    -3.155200    9.988624    -5.281234    4.015681    -8.021405    12.678700    0.000000    0.000000    0.000000    3.072484    6.459931    -2.817988    1.723001    -0.187875    0.067341    -0.798259    -1.946300    -6.962308    0.000000    0.000000    0.000000    
-132.883072    103.970802    37.868587    1.162846    -1.235081    90.138199    0.015414    -4.749871    0.059155    2.117335    -1.935971    0.094936    2.850355    14.955564    2.457673    1.196308    -0.903563    2.702778    11.714434    -2.481194    -9.728194    -15.675402    4.418671    7.337916    2.193302    -3.530072    -0.673686    -3.622391    -3.517877    0.021884    -15.453951    -0.412543    -8.333471    15.111750    -1.825562    3.331886    -0.900273    -6.238721    0.286361    -0.901001    -6.219553    -2.166429    -0.479918    1.715142    0.107609    -3.151000    9.976377    -5.323151    4.006587    -8.020366    12.642705    0.000000    0.000000    0.000000    3.047531    6.538220    -2.735929    1.797605    -0.310761    0.129057    -0.845426    -1.899745    -7.162078    0.000000    0.000000    0.000000    
-132.880127    103.974380    37.881477    1.155564    -1.236129    90.212257    0.028961    -4.752109    0.057152    2.077291    -1.976359    0.092382    2.879354    14.967130    2.385633    1.154462    -0.967633    2.622099    11.689201    -2.491175    -9.795870    -15.652012    4.426876    7.295462    2.213191    -3.482020    -0.693396    -3.732948    -3.470716    0.063480    -15.377307    -0.373331    -8.325007    15.085961    -1.871668    3.270633    -0.884937    -6.275062    0.285922    -0.943398    -6.254071    -2.296617    -0.464100    1.711184    0.110765    -3.148949    9.966118    -5.377904    4.001087    -8.012175    12.623585    0.000000    0.000000    0.000000    3.057201    6.595445    -2.753462    1.815378    -0.416790    0.114427    -0.836764    -1.843662    -7.198133    0.000000    0.000000    0.000000    
-132.876846    103.980423    37.902855    1.145387    -1.264903    90.279129    0.060284    -4.766634    0.064278    2.040779    -1.992264    0.097738    2.924295    14.931767    2.325332    1.118989    -0.965958    2.552435    11.694320    -2.487556    -9.867406    -15.649438    4.442066    7.254055    2.161724    -3.414343    -0.697941    -3.172598    -3.396947    -0.154265    -15.296290    -0.348660    -8.337868    15.061146    -1.864511    3.214938    -0.859173    -6.329586    0.236394    -0.912630    -6.310584    -2.178976    -0.409101    1.706267    0.153983    -3.153589    9.954546    -5.459389    3.972346    -8.013016    12.608455    0.000000    0.000000    0.000000    3.113853    6.661017    -2.747558    1.804729    -0.551752    0.060303    -0.827074    -1.750003    -7.208832    0.000000    0.000000    0.000000    
-132.875885    103.985168    37.911823    1.115947    -1.257037    90.349319    0.064957    -4.796117    0.062884    2.011249    -2.015842    0.095918    3.329931    14.995334    2.338824    0.458452    -1.130764    2.464298    11.694128    -2.492314    -9.919124    -15.669815    4.457880    7.198707    2.232483    -3.382230    -0.789380    -3.843880    -3.371463    0.136671    -15.236159    -0.325388    -8.351701    15.036553    -1.829092    3.178145    -0.879776    -6.343324    0.173523    -0.593372    -6.331284    -2.083378    -0.405921    1.689550    0.158233    -3.145993    9.927370    -5.536382    3.933168    -7.997661    12.605385    0.000000    0.000000    0.000000    3.115120    6.721215    -2.759479    1.817456    -0.707534    0.072199    -0.815032    -1.671305    -7.272898    0.000000    0.000000    0.000000    
-132.874084    103.990196    37.921631    1.089395    -1.248197    90.425591    0.075605    -4.823280    0.051640    1.973722    -2.045437    0.084677    3.404360    14.970094    2.332545    0.322420    -1.101760    2.435225    11.677797    -2.476515    -9.963422    -15.678946    4.493438    7.152763    2.242948    -3.334529    -0.843525    -3.844079    -3.321516    0.103681    -15.197591    -0.303279    -8.336306    15.039415    -1.767241    3.123729    -0.809426    -6.449253    0.174812    -0.698721    -6.434564    -2.223695    -0.401880    1.676204    0.141793    -3.146063    9.887884    -5.517138    3.917280    -7.969330    12.527762    0.000000    0.000000    0.000000    3.115067    6.791031    -2.749863    1.831251    -0.871706    0.030060    -0.783028    -1.598806    -7.312135    0.000000    0.000000    0.000000    
-132.875198    103.996643    37.930359    1.059792    -1.242464    90.499992    0.084823    -4.851542    0.040603    1.955321    -2.069398    0.072543    3.342839    14.910095    2.293630    0.371882    -1.002895    2.400825    11.658874    -2.461781    -10.001703    -15.695988    4.532731    7.099206    2.246388    -3.287415    -0.879824    -3.860111    -3.272671    0.073642    -15.190940    -0.289112    -8.340500    15.058357    -1.717127    3.094053    -0.744591    -6.454136    0.155235    -0.850473    -6.436729    -2.225211    -0.416452    1.627944    0.159743    -3.098457    9.913101    -5.545686    3.874907    -7.962162    12.465427    0.000000    0.000000    0.000000    3.119131    6.841267    -2.752026    1.844328    -1.010098    -0.007409    -0.776271    -1.520696    -7.342538    0.000000    0.000000    0.000000    
-132.873581    104.002571    37.934788    1.030698    -1.232494    90.571571    0.090919    -4.876426    0.038136    1.932272    -2.108406    0.070640    3.355179    14.906090    2.286159    0.361846    -0.990034    2.391188    11.644424    -2.432619    -10.058586    -15.721072    4.562329    7.042433    2.252662    -3.252814    -0.915000    -3.886085    -3.235235    0.011415    -15.183201    -0.286906    -8.358966    15.091810    -1.677417    3.059198    -0.732155    -6.380330    0.137110    -0.757708    -6.364181    -2.325901    -0.415085    1.629525    0.125901    -3.104225    9.841300    -5.536573    3.849060    -7.930201    12.419352    0.000000    0.000000    0.000000    3.119115    6.894741    -2.757730    1.845988    -1.149175    0.017363    -0.731009    -1.462069    -7.422248    0.000000    0.000000    0.000000    
-132.875320    104.013420    37.945358    0.998105    -1.237344    90.626534    0.035864    -4.861058    0.054789    2.056527    -2.235220    0.093569    3.286617    14.944529    2.258734    0.400252    -0.969743    2.370467    11.559486    -2.368382    -10.189680    -15.756336    4.573390    7.022603    2.257521    -3.282499    -0.962721    -3.862501    -3.262561    -0.029302    -15.244372    -0.212296    -8.431930    15.116213    -1.733449    3.081786    -0.720296    -6.376448    0.086213    -0.815732    -6.360462    -2.184330    -0.397540    1.620581    0.156173    -3.093320    9.781591    -5.577570    3.834247    -7.886806    12.362996    0.000000    0.000000    0.000000    3.135082    6.930048    -2.730336    1.847057    -1.268074    -0.024150    -0.717486    -1.383454    -7.452382    0.000000    0.000000    0.000000    
